<svg xmlns="http://www.w3.org/2000/svg" viewBox="0 0 1139 249.75" role="img" aria-labelledby="nyxon-title">
  <title id="nyxon-title">nyxon</title>
  <g id="nyxon" fill="currentColor" fill-rule="evenodd">
    <g class="letter" id="letter-n1" data-char="n">
      <path d="M0.28 180.3C-0.19 179.44 0.08 61.83 0.55 60.5C0.77 59.88 1.01 58.4 1.08 57.2C1.16 56 1.38 54.71 1.58 54.33C1.77 53.94 1.99 52.98 2.07 52.19C2.15 51.41 2.39 50.51 2.61 50.2C2.82 49.89 3 49.35 3 49C3 48.64 3.23 47.91 3.5 47.37C3.78 46.84 4 46.18 4 45.91C4 45.44 4.57 44.05 5.52 42.2C5.79 41.69 6 41.06 6 40.8C6 40.21 8.57 35.11 9.22 34.39C9.48 34.11 9.92 33.42 10.2 32.86C10.48 32.3 10.9 31.69 11.13 31.5C11.35 31.31 11.8 30.64 12.12 30C12.45 29.36 12.9 28.69 13.12 28.5C13.35 28.31 13.77 27.7 14.04 27.14C14.68 25.86 24.88 15.7 26.2 15.02C26.73 14.76 27.31 14.35 27.5 14.12C27.69 13.9 28.3 13.48 28.86 13.2C29.42 12.92 30.16 12.44 30.5 12.12C30.84 11.8 32.02 11.07 33.12 10.5C34.22 9.92 35.74 9.07 36.48 8.6C37.23 8.14 38.36 7.57 38.98 7.35C39.61 7.12 41.05 6.5 42.18 5.97C43.31 5.44 44.5 5 44.81 5C45.12 5 45.71 4.77 46.12 4.5C46.54 4.23 47.19 4 47.57 4C47.96 4 48.71 3.78 49.25 3.5C49.79 3.23 50.52 3 50.88 3C51.23 3 51.83 2.84 52.2 2.65C52.58 2.46 53.44 2.22 54.13 2.13C54.81 2.04 55.78 1.81 56.26 1.63C56.75 1.44 58.1 1.22 59.26 1.12C60.43 1.03 61.88 0.76 62.5 0.54C64.23 -0.1 147.77 -0.1 149.5 0.54C150.12 0.77 151.67 1.02 152.94 1.1C154.24 1.18 155.51 1.4 155.82 1.59C156.12 1.78 157.05 2.01 157.88 2.09C159.36 2.23 162.18 2.98 163.63 3.61C164.04 3.79 164.77 4.02 165.25 4.12C166.91 4.48 177.48 9.65 179.16 10.92C179.74 11.36 180.54 11.89 180.93 12.09C181.33 12.3 182.21 12.96 182.89 13.56C183.57 14.16 184.58 14.92 185.12 15.25C186.55 16.09 195.92 25.41 196.69 26.75C197.05 27.37 197.81 28.39 198.39 29.02C198.97 29.65 199.64 30.55 199.88 31.02C200.11 31.49 200.52 32.1 200.77 32.38C201.34 33 202.08 34.34 203.76 37.75C205.67 41.62 206 42.39 206 42.85C206 43.09 206.21 43.69 206.48 44.2C207.36 45.92 207.77 47.05 207.92 48.21C208 48.85 208.28 49.79 208.54 50.3C208.8 50.82 209 51.76 209 52.43C209 53.12 209.17 53.88 209.39 54.19C209.61 54.51 209.84 55.54 209.92 56.56C209.99 57.56 210.24 58.88 210.46 59.5C211.08 61.18 211.23 179.23 210.62 180.16L210.24 180.75L192.51 180.75L174.79 180.75L174.08 180.15L173.36 179.55L173.43 123.84C173.5 67.52 173.43 61.62 172.61 59.88C172.42 59.46 172.15 58.68 172.02 58.12C169.73 48.73 159.28 38.87 149.5 36.88C149.02 36.78 148.38 36.54 148.07 36.35C147.06 35.71 66.08 35.86 64.25 36.5C63.49 36.77 62.57 36.99 62.19 36.99C61.81 37 61.08 37.22 60.57 37.5C60.05 37.77 59.43 38 59.18 38C58.93 38 58.31 38.21 57.8 38.47C57.29 38.73 55.87 39.43 54.64 40.03C53.41 40.63 51.68 41.72 50.79 42.44C49.91 43.16 49.09 43.75 48.98 43.75C48.55 43.75 45.45 46.87 45 47.75C44.75 48.24 44.04 49.21 43.43 49.89C41.74 51.77 39.73 55.97 38.95 59.25C38.8 59.86 38.5 60.65 38.28 60.99C37.91 61.55 37.86 66.79 37.75 120.69L37.62 179.78L37 180.26C36.06 180.98 0.66 181.02 0.28 180.3Z"/>
    </g>
    <g class="letter" id="letter-y" data-char="y">
      <path d="M344 249.51C336.38 249.38 335.25 249.29 335.25 248.76C335.25 248.4 348.54 235.25 350 234.17C350.76 233.61 352.02 232.47 352.81 231.64C353.6 230.8 354.44 229.93 354.68 229.7C360.13 224.38 374.64 210.11 378.47 206.29C381.28 203.49 384.15 200.82 384.85 200.37C386.85 199.07 403.6 182.14 404.38 180.62C405.09 179.25 405.66 174.31 405.21 173.44C404.85 172.75 403.72 172.79 402.79 173.53C402.45 173.79 402.06 174 401.9 174C401.75 174.01 400.72 174.45 399.62 175C398.52 175.55 397.34 175.99 396.99 176C396.64 176 396.24 176.11 396.09 176.26C395.69 176.66 393.26 177.53 391.56 177.87C390.7 178.05 389.86 178.3 389.69 178.45C389.52 178.59 388.7 178.78 387.88 178.88C387.05 178.98 386.08 179.21 385.72 179.4C385.35 179.58 383.52 179.84 381.59 179.96C379.68 180.09 377.68 180.32 377.12 180.47C375.78 180.83 309.92 180.83 308.12 180.47C307.44 180.33 305.34 180.12 303.47 180C301.37 179.88 299.79 179.66 299.35 179.43C298.95 179.23 297.85 178.99 296.9 178.9C295.96 178.81 294.83 178.58 294.4 178.4C293.98 178.22 293.19 178 292.65 177.9C292.12 177.8 291.44 177.57 291.15 177.39C290.86 177.21 290.26 176.99 289.82 176.91C289.04 176.77 286.06 175.49 284.2 174.49C283.69 174.22 283.14 174 282.97 174C282.51 174 279.46 172.52 278.61 171.87C278.19 171.56 277.46 171.11 276.98 170.89C275.02 169.96 274.09 169.42 273.5 168.88C273.16 168.56 272.52 168.13 272.09 167.91C271.66 167.7 270.71 166.97 269.97 166.3C269.23 165.62 268.23 164.87 267.75 164.63C266.56 164.02 257.48 154.87 256.41 153.2C255.94 152.46 255.36 151.7 255.13 151.51C254.9 151.31 254.48 150.7 254.2 150.14C253.92 149.58 253.32 148.72 252.87 148.22C251.52 146.71 247.6 139.31 247.14 137.38C247.04 136.96 246.58 135.83 246.12 134.85C245.66 133.87 245.2 132.46 245.11 131.72C245.02 130.98 244.8 130.15 244.63 129.88C244.46 129.6 244.24 128.7 244.14 127.88C244.03 127.05 243.8 126.09 243.63 125.75C243.45 125.41 243.22 124.34 243.13 123.38C243.03 122.41 242.77 121.12 242.54 120.5C242.01 119.06 241.75 0.98 242.27 0.35C242.67 -0.13 279.22 -0.18 279.7 0.3C279.93 0.53 280 13.7 280 58.06C280 107.39 280.05 115.62 280.36 116.22C280.55 116.6 280.79 117.63 280.88 118.52C280.98 119.54 281.4 120.96 282.02 122.4C282.56 123.66 283 124.83 283 125C283 125.35 284.51 127.75 285.83 129.5C286.3 130.12 286.85 130.96 287.07 131.38C287.5 132.22 292.29 137 292.69 137C292.84 137 293.5 137.43 294.17 137.96C295.75 139.21 301.3 141.9 302.75 142.13C303.37 142.23 304.22 142.45 304.63 142.62C306.14 143.24 308.77 143.28 342.68 143.27C375.1 143.25 378.74 143.19 380.62 142.55C381.04 142.42 381.94 142.11 382.62 141.88C383.31 141.65 384.27 141.37 384.75 141.24C385.24 141.12 386.42 140.61 387.38 140.11C388.34 139.6 389.8 138.85 390.62 138.43C392.31 137.57 399.78 130.35 400.12 129.24C400.23 128.9 400.62 128.23 400.99 127.75C402.04 126.37 403.74 122.46 404.14 120.5C404.24 120.02 404.46 119.41 404.63 119.13C405.23 118.16 405.51 110.41 405.46 96.12C405.42 85.6 405.48 81.88 405.72 81.12C405.95 80.35 405.99 74.72 405.89 55.88C405.74 28.28 405.74 28.29 405.82 12.25C405.85 4.69 405.97 0.31 406.12 0.19C406.63 -0.18 443.41 -0.03 443.72 0.34C444.24 0.97 443.99 180.07 443.46 181.5C443.24 182.12 443 183.43 442.94 184.41C442.87 185.49 442.66 186.42 442.41 186.78C442.18 187.1 442 187.79 442 188.32C442 188.85 441.78 189.81 441.52 190.45C441.26 191.1 440.97 191.95 440.88 192.35C440.79 192.74 440.21 194.15 439.58 195.47C438.95 196.79 438.23 198.32 437.97 198.88C437.17 200.57 436.26 202.09 435.64 202.75C435.32 203.09 434.86 203.77 434.62 204.25C434.05 205.39 413.41 225.93 411.12 227.63C410.16 228.34 408.56 229.82 407.57 230.9C406.58 231.99 405.56 233.07 405.32 233.3C405.08 233.53 401.28 237.26 396.88 241.58L388.88 249.43L379.62 249.59C369.61 249.76 356.85 249.74 344 249.51Z"/>
    </g>
    <g class="letter" id="letter-x" data-char="x">
      <path class="shard" id="letter-x-1" d="M557.08 89.26C556.65 89 555.98 88.24 555.59 87.58C555.17 86.84 549.46 80.86 540.76 72.04C532.99 64.16 526.4 57.34 526.12 56.89C525.85 56.45 518.06 48.44 508.81 39.1C499.57 29.77 491.7 21.67 491.33 21.12C490.96 20.58 486.57 15.97 481.57 10.89C472.31 1.49 471.52 0.52 473.25 0.68C474.11 0.77 473.76 0.77 484.5 0.48C489.79 0.34 500.5 0.27 508.29 0.34C524.13 0.48 523.8 0.44 524.96 2.3C525.62 3.38 531.03 8.63 532.63 9.75C533.31 10.24 534.21 11.15 534.62 11.78C535.04 12.41 542.1 19.72 550.31 28.04C558.53 36.35 565.58 43.66 565.97 44.27C566.95 45.78 575.34 53.95 576.87 54.88C578.74 56.01 581.09 57.24 581.41 57.24C581.56 57.25 581.82 57.41 581.98 57.6C582.14 57.8 582.86 58.04 583.58 58.13C584.29 58.23 585.16 58.43 585.5 58.57C585.84 58.71 586.77 58.91 587.57 59.01C588.36 59.11 589.18 59.33 589.38 59.5C589.87 59.91 589.88 63.09 589.4 64.55C589.2 65.14 589 66.65 588.95 67.91C588.88 69.39 588.71 70.39 588.46 70.78C588.25 71.11 588.01 71.95 587.93 72.66C587.76 74.15 585.89 78.27 584.82 79.54C584.43 80 583.8 80.86 583.42 81.45C583.04 82.04 582.28 82.82 581.73 83.2C581.18 83.57 580.25 84.26 579.68 84.72C579.1 85.19 578.34 85.69 578 85.84C577.66 86 576.89 86.48 576.31 86.93C575.72 87.37 574.82 87.8 574.31 87.89C573.79 87.98 573.12 88.22 572.8 88.42C572.49 88.61 571.64 88.84 570.93 88.91C570.21 88.98 569.2 89.2 568.68 89.4C567.08 90 558.12 89.89 557.08 89.26Z"/>
      <path class="shard" id="letter-x-2" d="M474.94 180.57C474.17 180.38 474.46 179.55 475.56 178.78C476.86 177.88 479.46 175.22 480.32 173.92C480.66 173.39 497.74 156.11 518.26 135.52C539.13 114.58 555.78 97.67 556.04 97.16C556.67 95.95 556.77 95.94 563.93 96.04C569.34 96.11 570.2 96.18 570.74 96.56C571.08 96.8 571.7 97 572.12 97C572.54 97 573.27 97.21 573.75 97.46C574.23 97.71 574.96 97.99 575.38 98.07C578.46 98.67 583.8 103.67 585.84 107.88C587.52 111.32 587.71 111.77 587.89 112.62C587.98 113.04 588.21 113.83 588.41 114.38C588.82 115.5 589.27 119.91 589.33 123.37L589.38 125.61L588.62 125.83C588.21 125.95 587.37 126.2 586.75 126.38C586.13 126.57 585.12 126.79 584.5 126.88C583.88 126.97 583.15 127.19 582.87 127.37C582.59 127.54 581.99 127.77 581.53 127.87C580.7 128.05 579.02 128.91 576.61 130.38C575.02 131.34 552.4 153.79 550.63 156.15C549.33 157.88 548.59 158.59 546.25 160.32C545.64 160.77 544.79 161.64 544.38 162.24C543.96 162.85 539.74 167.26 534.99 172.06L526.35 180.77L500.86 180.72C486.84 180.69 475.18 180.62 474.94 180.57Z"/>
      <path class="shard" id="letter-x-3" d="M615.43 89.39C614.92 89.21 613.85 88.98 613.07 88.88C612.28 88.78 611.41 88.54 611.14 88.35C610.86 88.16 610.41 88 610.12 88C609.44 88 606.31 86.49 605.38 85.7C604.96 85.35 604.39 84.99 604.1 84.9C603.41 84.69 599.57 80.85 599.06 79.88C598.85 79.47 598.37 78.73 598.01 78.25C596.66 76.48 595.32 72.47 595.11 69.61C595.03 68.52 594.81 67.23 594.62 66.75C594.43 66.27 594.23 64.54 594.17 62.91C594.04 59.32 594.21 59 596.26 59C596.96 59 597.83 58.85 598.2 58.66C598.57 58.47 599.47 58.24 600.19 58.15C601.08 58.04 602.54 57.46 604.69 56.37L607.88 54.75L634.69 27.94L661.5 1.13L663.31 0.91C667.26 0.42 712.53 0.73 712.7 1.24C712.76 1.4 703.95 10.4 693.12 21.24C682.29 32.09 673.23 41.28 672.98 41.67C672.73 42.06 671.67 43.22 670.63 44.25C657.41 57.38 629.25 86.13 628.91 86.84C628.67 87.35 628.05 88.21 627.53 88.75L626.58 89.75L621.48 89.74C617.87 89.73 616.1 89.63 615.43 89.39Z"/>
      <path class="shard" id="letter-x-4" d="M656.22 180.27C655.89 180.01 651.91 176.04 647.38 171.46C642.84 166.88 638.16 162.17 636.97 161C635.78 159.83 634.47 158.37 634.05 157.75C633.17 156.44 621.47 144.75 621.04 144.75C620.59 144.75 618.76 142.99 618.33 142.14C617.83 141.15 608.36 131.59 607.38 131.07C606.96 130.86 606.23 130.37 605.74 129.99C604.34 128.89 600.49 127.08 599.13 126.88C598.44 126.78 597.58 126.54 597.2 126.35C596.83 126.16 596.15 126 595.69 126C595.23 126 594.72 125.86 594.55 125.7C594.11 125.26 594.15 119.53 594.6 118.32C594.8 117.8 595.02 116.57 595.09 115.58C595.16 114.59 595.38 113.52 595.58 113.2C595.79 112.89 596.03 112.24 596.13 111.78C596.36 110.65 597.27 108.72 598.05 107.7C598.39 107.25 598.91 106.43 599.19 105.88C600.56 103.19 607.04 98 609.02 98C609.28 98 609.86 97.78 610.31 97.5C610.76 97.23 611.44 97 611.82 97C612.21 97 612.88 96.81 613.32 96.57C614 96.2 615.05 96.13 620.25 96.05L626.38 95.96L627.04 96.67C627.41 97.06 628.1 97.98 628.59 98.72C629.1 99.51 642.95 113.61 661.79 132.56C679.57 150.44 694.48 165.58 694.91 166.22C695.35 166.85 698.42 170.07 701.73 173.37C707.7 179.32 708.39 180.2 707.35 180.6C707.14 180.68 695.68 180.75 681.89 180.75C657.56 180.75 656.8 180.74 656.22 180.27Z"/>
    </g>
    <g class="letter" id="letter-o" data-char="o">
      <path d="M780.5 180.39C780.02 180.22 778.74 180 777.66 179.9C776.58 179.8 775.45 179.57 775.16 179.39C774.87 179.21 773.82 179 772.83 178.92C771.84 178.84 770.72 178.62 770.33 178.43C769.94 178.23 769.1 178 768.46 177.92C767.33 177.77 766.42 177.45 764.38 176.47C763.82 176.21 763.16 176 762.9 176C762.39 176 761.69 175.7 757.75 173.76C753.49 171.66 750.92 170.26 750.25 169.66C749.91 169.35 749.33 168.97 748.97 168.82C748.61 168.66 747.93 168.22 747.47 167.82C747 167.43 746.12 166.79 745.5 166.39C743.88 165.36 733.67 155.08 733.05 153.86C732.77 153.3 732.35 152.69 732.12 152.5C731.9 152.31 731.48 151.7 731.2 151.14C730.91 150.58 730.41 149.8 730.08 149.41C729.3 148.47 725 139.75 725 139.11C725 138.83 724.84 138.38 724.64 138.09C724.25 137.55 723.7 136.14 723.12 134.25C722.94 133.63 722.61 132.68 722.4 132.12C722.19 131.57 722.02 130.78 722.01 130.37C722 129.95 721.78 129.16 721.5 128.63C721.22 128.09 721 127.18 721 126.6C721 126.03 720.81 125.13 720.57 124.59C719.4 121.93 719.37 59.62 720.54 57.38C720.76 56.96 720.99 55.78 721.05 54.74C721.12 53.66 721.33 52.59 721.55 52.24C721.77 51.9 722 50.98 722.08 50.19C722.15 49.41 722.39 48.51 722.61 48.2C722.82 47.89 723 47.35 723 47C723 46.65 723.21 45.98 723.46 45.5C723.72 45.02 724 44.22 724.09 43.73C724.48 41.61 730.03 31.3 732.19 28.67C732.77 27.96 733.65 26.78 734.14 26.05C735.26 24.39 742.37 17.24 743.81 16.34C744.4 15.97 745.43 15.18 746.11 14.57C746.79 13.96 747.67 13.3 748.07 13.09C748.46 12.89 749.26 12.36 749.84 11.92C751.36 10.77 763.03 5 763.85 5C764.08 5 764.71 4.78 765.25 4.5C765.79 4.23 766.55 4 766.93 4C767.32 4 767.87 3.84 768.14 3.65C768.42 3.45 769.09 3.21 769.64 3.11C770.18 3.01 770.92 2.78 771.28 2.6C771.64 2.42 772.71 2.2 773.66 2.11C774.6 2.02 775.83 1.79 776.39 1.59C776.94 1.39 778.85 1.12 780.64 1C782.42 0.87 784.55 0.67 785.38 0.53C787.4 0.21 849.75 0.2 852.25 0.52C853.28 0.66 855.46 0.88 857.08 1.01C858.71 1.14 860.28 1.39 860.58 1.55C860.88 1.71 861.86 1.98 862.75 2.14C863.64 2.31 864.71 2.56 865.12 2.7C865.54 2.84 866.44 3.14 867.12 3.37C867.81 3.6 868.86 3.89 869.45 4.01C870.04 4.14 870.77 4.41 871.07 4.62C871.37 4.83 871.82 5 872.07 5C873.45 5 885.6 11.29 887.25 12.86C887.73 13.32 888.52 13.89 889 14.13C890.2 14.72 901.89 26.35 902.69 27.75C903.04 28.37 903.58 29.16 903.89 29.5C904.19 29.84 904.64 30.52 904.88 31C905.13 31.48 905.59 32.22 905.91 32.65C906.75 33.75 911 42.23 911 42.8C911 43.06 911.22 43.69 911.48 44.2C912.32 45.82 912.77 47.11 912.99 48.51C913.11 49.26 913.38 50.32 913.59 50.88C913.8 51.42 913.98 52.23 913.99 52.66C914 53.09 914.17 53.84 914.38 54.34C914.6 54.88 914.81 56.47 914.9 58.31C914.99 60 915.21 61.86 915.4 62.45C915.92 64.06 915.92 117.29 915.4 118.68C915.2 119.2 914.98 120.98 914.91 122.62C914.84 124.34 914.63 126 914.42 126.5C914.23 126.98 913.99 127.98 913.89 128.73C913.8 129.47 913.57 130.37 913.39 130.73C913.21 131.08 912.99 131.82 912.89 132.36C912.79 132.91 912.55 133.58 912.35 133.86C912.16 134.13 912 134.63 912 134.97C912 135.67 911.82 136.06 908.76 142.25C905.82 148.2 904.62 150.42 903.77 151.5C903.39 151.98 902.88 152.77 902.63 153.25C902.05 154.39 891.14 165.29 890 165.87C889.52 166.12 888.59 166.81 887.95 167.41C887.3 168.01 886.46 168.64 886.07 168.8C885.69 168.97 885.02 169.41 884.58 169.78C883.55 170.65 871.41 176.69 870.25 176.9C869.77 176.99 869.13 177.21 868.83 177.4C868.53 177.59 867.63 177.82 866.83 177.91C866.03 178 865.14 178.23 864.84 178.42C864.55 178.61 863.71 178.83 862.97 178.91C862.23 178.98 861.18 179.2 860.62 179.4C860.08 179.59 858.39 179.85 856.88 179.98C855.36 180.11 853.62 180.33 853 180.47C851.21 180.88 781.64 180.81 780.5 180.39ZM851.28 144.65C851.75 144.46 852.91 144.22 853.88 144.12C854.84 144.03 855.85 143.81 856.13 143.63C856.41 143.46 857.02 143.23 857.5 143.13C858.56 142.92 862.52 140.98 863.6 140.16C864.03 139.84 864.73 139.39 865.16 139.17C867.8 137.81 873.38 131.4 875.39 127.43C875.75 126.71 876.24 125.73 876.49 125.25C876.73 124.77 877.01 123.81 877.12 123.13C877.22 122.44 877.44 121.6 877.62 121.25C877.79 120.91 878.02 119.84 878.12 118.88C878.22 117.91 878.46 116.75 878.65 116.28C879.17 115.04 879.17 64.99 878.66 63.72C878.47 63.25 878.24 62.1 878.15 61.15C878.05 60.2 877.85 59.2 877.7 58.91C877.55 58.63 877.28 57.89 877.1 57.26C876.16 53.99 875.35 52.4 873.17 49.5C872.7 48.88 872.14 48.04 871.93 47.62C871.41 46.64 868.17 43.48 866.8 42.64C866.21 42.28 865.31 41.61 864.8 41.16C863.24 39.79 857.51 37.21 855.25 36.87C854.63 36.77 853.75 36.54 853.28 36.35C851.99 35.82 783.8 35.83 782.78 36.36C782.39 36.56 781.47 36.8 780.73 36.9C779.98 37 778.98 37.28 778.5 37.54C778.02 37.79 777.42 38 777.17 38C776.91 38 776.4 38.16 776.04 38.35C775.67 38.55 774.19 39.29 772.75 40.01C771.31 40.73 769.8 41.58 769.4 41.92C769.01 42.25 768.28 42.73 767.78 42.99C766.88 43.45 764 46.26 764 46.69C764 46.81 763.58 47.48 763.06 48.17C762.55 48.86 761.41 50.88 760.53 52.65C758.22 57.35 758.04 57.76 757.88 58.96C757.8 59.56 757.54 60.41 757.31 60.84C756.91 61.57 756.88 63.65 756.88 90.5L756.88 119.38L757.44 120.25C757.75 120.73 758 121.47 758 121.88C758 122.3 758.15 122.86 758.34 123.13C758.53 123.4 758.77 124.02 758.87 124.5C759.27 126.39 761.88 131 764.12 133.79C765.37 135.35 769.28 139 769.7 139C769.84 139 770.45 139.37 771.04 139.82C773.38 141.59 778.62 143.82 781.41 144.23C782.39 144.38 783.46 144.6 783.79 144.73C784.83 145.15 850.27 145.07 851.28 144.65Z"/>
    </g>
    <g class="letter" id="letter-n2" data-char="n">
      <path d="M942.62 180.5C939.6 180.42 937.1 180.33 937.08 180.3C937.06 180.27 936.86 180.07 936.64 179.85C936.19 179.41 936.09 78.42 936.52 68.88C936.98 58.89 937.2 56.07 937.6 55.29C937.82 54.87 938 54.09 938 53.57C938 53.04 938.17 51.99 938.39 51.24C938.6 50.49 938.9 49.37 939.04 48.75C939.19 48.14 939.46 47.41 939.63 47.13C939.8 46.85 940.02 46.19 940.12 45.65C940.21 45.12 940.44 44.44 940.62 44.15C940.8 43.86 941.03 43.23 941.13 42.75C941.23 42.27 941.45 41.59 941.63 41.25C941.81 40.91 942.54 39.44 943.25 38C943.96 36.56 944.87 34.96 945.27 34.45C945.67 33.94 946 33.42 946 33.28C946 33.15 946.39 32.53 946.86 31.91C947.33 31.29 947.91 30.42 948.14 29.98C948.37 29.54 949.03 28.65 949.62 28.02C950.2 27.39 950.86 26.54 951.07 26.12C951.6 25.07 959.39 17.22 960.75 16.35C961.37 15.96 962.43 15.15 963.11 14.55C963.79 13.95 964.69 13.29 965.11 13.08C965.53 12.87 966.1 12.48 966.38 12.23C966.93 11.73 968.6 10.75 970 10.12C970.48 9.9 971.1 9.51 971.38 9.24C972.06 8.61 976.79 6.28 977.82 6.07C978.26 5.99 978.96 5.71 979.38 5.46C979.79 5.21 980.38 5 980.7 5C981.01 5 981.71 4.77 982.25 4.5C982.79 4.22 983.49 4 983.81 4C984.13 4 984.84 3.78 985.37 3.5C985.91 3.23 986.6 3 986.9 3C987.2 3 987.94 2.78 988.54 2.51C989.13 2.23 990.03 2.01 990.53 2.01C991.03 2 991.86 1.83 992.36 1.61C992.95 1.37 994.68 1.15 997.08 1.01C999.17 0.89 1001.38 0.68 1002 0.53C1003.47 0.19 1070.32 0.18 1073 0.52C1074.03 0.65 1076.47 0.86 1078.41 0.98C1080.57 1.12 1082.22 1.35 1082.66 1.57C1083.05 1.77 1084.1 2 1084.99 2.09C1086.83 2.28 1089.01 2.93 1091.88 4.15C1092.97 4.62 1094.04 5 1094.23 5C1094.61 5 1096.25 5.69 1097.8 6.51C1098.31 6.78 1098.88 7 1099.06 7C1099.51 7 1103.4 8.89 1103.59 9.2C1103.68 9.33 1104.67 9.92 1105.81 10.49C1106.95 11.07 1108.16 11.8 1108.5 12.11C1108.84 12.42 1109.58 12.94 1110.12 13.26C1110.68 13.59 1111.8 14.49 1112.62 15.27C1113.45 16.05 1114.44 16.85 1114.82 17.04C1115.75 17.52 1122.13 23.88 1122.81 25C1123.1 25.48 1124.03 26.61 1124.88 27.5C1125.73 28.39 1126.63 29.52 1126.87 30C1127.12 30.48 1127.58 31.18 1127.89 31.56C1128.4 32.17 1129.22 33.7 1132.09 39.38C1133.62 42.42 1134.68 44.85 1134.87 45.75C1134.97 46.23 1135.21 46.88 1135.41 47.19C1135.61 47.5 1135.87 48.23 1135.99 48.82C1136.11 49.4 1136.38 50.32 1136.6 50.88C1136.81 51.42 1136.98 52.23 1136.99 52.66C1137 53.09 1137.18 53.87 1137.4 54.4C1137.64 54.96 1137.85 56.4 1137.93 57.87C1137.99 59.25 1138.21 60.94 1138.41 61.62C1138.88 63.25 1138.93 179.85 1138.47 180.42C1138.24 180.69 1134.84 180.75 1119.98 180.75L1101.78 180.75L1101.39 180.19C1101.04 179.7 1101 173.67 1101 121.06C1101 70.47 1100.95 62.38 1100.64 61.78C1100.44 61.39 1100.2 60.47 1100.1 59.73C1100 58.98 1099.72 57.98 1099.46 57.5C1099.21 57.02 1099 56.45 1099 56.24C1099 55.48 1096.6 51.07 1095.53 49.85C1094.94 49.18 1094.28 48.29 1094.07 47.88C1093.59 46.91 1091.33 44.57 1090.43 44.09C1090.04 43.89 1089.01 43.11 1088.12 42.36C1087.24 41.61 1086.41 41 1086.28 41C1086.15 41 1085.5 40.59 1084.85 40.09C1084.2 39.59 1083.26 39.07 1082.77 38.94C1082.28 38.8 1081.09 38.33 1080.12 37.87C1078.84 37.27 1077.85 37.01 1076.38 36.88C1075.28 36.78 1073.91 36.54 1073.34 36.35C1072.46 36.05 1066.68 36.01 1036.21 36.07C996.17 36.16 999.69 36.02 994.69 37.79C992.72 38.48 989.02 40.44 987.88 41.38C987.19 41.95 986.22 42.66 985.72 42.95C984.75 43.54 980.75 47.58 980.75 47.98C980.75 48.11 980.19 48.89 979.51 49.71C977.73 51.85 975.78 55.88 974.98 59.09C974.84 59.62 974.56 60.4 974.34 60.83C973.97 61.53 973.94 66.98 973.97 120.58C974.01 173.44 973.97 179.63 973.63 180.16L973.24 180.75L960.68 180.7C953.78 180.67 945.65 180.58 942.62 180.5Z"/>
    </g>
  </g>
</svg>
